<?xml version="1.0" encoding="iso-8859-1"?>
<!-- Generator: Adobe Illustrator 19.0.0, SVG Export Plug-In . SVG Version: 6.00 Build 0)  -->
<svg version="1.1" id="Layer_1" xmlns="http://www.w3.org/2000/svg" xmlns:xlink="http://www.w3.org/1999/xlink" x="0px" y="0px"
	 viewBox="0 0 480.01 480.01" style="enable-background:new 0 0 480.01 480.01;" xml:space="preserve">
<g>
	<circle style="fill:#2364CE;" cx="240.001" cy="240" r="240"/>
	<circle style="fill:#2364CE;" cx="240.001" cy="240" r="240"/>
</g>
<path style="fill:#074AAA;" d="M409.713,70.304c93.736,93.728,93.72,245.672,0,339.4c-93.736,93.736-245.688,93.744-339.416,0.008"
	/>
<path style="fill:#3981EA;" d="M18.673,258.664c0-132.544,107.456-239.992,240-239.992c61.504,0,117.6,23.168,160.072,61.208
	C374.809,30.864,311.017,0.008,240.001,0.008c-132.544,0-240,107.448-240,239.992c0,71.04,30.88,134.848,79.928,178.792
	C41.857,376.312,18.673,320.208,18.673,258.664z"/>
<path style="fill:#C8D8E8;" d="M174.425,113.84c-20.76,0-42.504,0.424-55.944,1.056c-1.68,0-6.48,1.056-6.48,2.528v223.088
	c0,1.896,1.056,3.496,2.736,3.496h34.352c1.888,0,2.912-2.304,2.912-3.992v-76.992c8,0,8.816,0.432,16.784,0.432
	c47.376,0,86.152-23.008,86.152-76.6C254.929,145.904,232.497,113.84,174.425,113.84z M169.505,229.896c-8.4,0-9.504,0-17.504-0.424
	v-81.44c8-0.216,12.272-0.648,20.648-0.648c27.88,0,44.448,13.504,44.448,40.32C217.097,221.248,194.033,229.896,169.505,229.896z"
	/>
<g>
	<path style="fill:#FFFFFF;" d="M337.105,244.248c-22.232-11.608-25.984-16.88-25.984-24.488c0-6.952,5.64-15.4,22.208-15.4
		c13.616,0,28.768,3.576,38,9.496c2.096,0.648,4.672-0.416,4.672-2.096v-28.912c0-1.48-1.952-3.168-3.64-4.216
		c-6.904-3.168-20.232-5.904-38.264-5.904c-36.688,0-58.24,22.576-58.24,49.8c0,24.272,12.176,38.832,41.944,53.168
		c21.168,10.968,25.888,17.736,25.888,25.32c0,9.504-6.952,16.472-23.512,16.472c-13.84,0-30.696-3.808-43.896-12.456
		c-1.472-1.064-4.28-0.432-4.28,1.672v31.032c0,1.688,1.928,2.736,3.4,3.368c9.024,5.288,25.616,9.08,43.856,9.08
		c34.568,0,60.584-18.152,60.584-51.904C379.841,275.688,370.017,260.288,337.105,244.248z"/>
	<path style="fill:#FFFFFF;" d="M337.105,244.248c-22.232-11.608-25.984-16.88-25.984-24.488c0-6.952,5.64-15.4,22.208-15.4
		c13.616,0,28.768,3.576,38,9.496c2.096,0.648,4.672-0.416,4.672-2.096v-28.912c0-1.48-1.952-3.168-3.64-4.216
		c-6.904-3.168-20.232-5.904-38.264-5.904c-36.688,0-58.24,22.576-58.24,49.8c0,24.272,12.176,38.832,41.944,53.168
		c21.168,10.968,25.888,17.736,25.888,25.32c0,9.504-6.952,16.472-23.512,16.472c-13.84,0-30.696-3.808-43.896-12.456
		c-1.472-1.064-4.28-0.432-4.28,1.672v31.032c0,1.688,1.928,2.736,3.4,3.368c9.024,5.288,25.616,9.08,43.856,9.08
		c34.568,0,60.584-18.152,60.584-51.904C379.841,275.688,370.017,260.288,337.105,244.248z"/>
	<path style="fill:#FFFFFF;" d="M118.481,125.552c13.44-0.632,34.256-1.056,55.016-1.056c55.184,0,78.792,28.984,80.96,67
		c0.08-1.552,0.448-3.04,0.448-4.648c0-40.944-22.52-73.016-80.592-73.016c-20.76,0-42.448,0.424-55.88,1.056
		c-1.688,0-6.424,1.056-6.424,2.528v10.664C112.001,126.6,116.801,125.552,118.481,125.552z"/>
	<path style="fill:#FFFFFF;" d="M169.505,240.56c24.52,0,47.84-8.648,47.84-42.192c0-1.48-0.12-2.752-0.208-4.16
		c-2.84,28.16-24.848,35.688-47.696,35.688c-8.4,0-9.448,0-17.448-0.424v10.664C160.001,240.56,161.113,240.56,169.505,240.56z"/>
</g>
<g>
	<path style="fill:#C8D8E8;" d="M337.105,244.248c-16.456-8.584-22.768-13.712-24.936-18.872c-1.56-4.776-1.224-4.576-1.224-2.936
		c0,7.6,3.928,20.864,26.168,32.48c30.168,14.704,40.784,29.952,42.432,49.608c0.144-1.704,0.312-4.472,0.312-6.248
		C379.841,275.688,370.017,260.288,337.105,244.248z"/>
	<path style="fill:#C8D8E8;" d="M276.249,315.688c13.2,8.648,29.168,12.456,43.008,12.456c16.56,0,23.896-6.968,23.896-16.472
		c0-1.768,0.096-2.944-0.568-4.672c-2.96,6.264-9.392,10.48-22.568,10.48c-13.84,0-30.616-3.808-43.824-12.456
		c-1.464-1.056-4.192-0.424-4.192,1.68v10.664C272.001,315.256,274.785,314.632,276.249,315.688z"/>
	<path style="fill:#C8D8E8;" d="M333.329,183.384c18.032,0,32.128,2.736,39.032,5.904c1.688,1.048,3.64,2.744,3.64,4.224v-10.664
		c0-1.48-1.952-3.168-3.64-4.216c-6.904-3.168-20.232-5.904-38.264-5.904c-36.688,0-58.24,22.576-58.24,49.8
		c0,1.76,0.024,3.344,0.152,4.992C278.753,202.896,299.225,183.384,333.329,183.384z"/>
</g>
<g>
</g>
<g>
</g>
<g>
</g>
<g>
</g>
<g>
</g>
<g>
</g>
<g>
</g>
<g>
</g>
<g>
</g>
<g>
</g>
<g>
</g>
<g>
</g>
<g>
</g>
<g>
</g>
<g>
</g>
</svg>
